<?xml version="1.0" encoding="UTF-8"?>
<svg xmlns="http://www.w3.org/2000/svg" xmlns:xlink="http://www.w3.org/1999/xlink" width="1917" height="1093" viewBox="0 0 1917 1093">
  <g id="Obszar_kompozycji_1" data-name="Obszar kompozycji 1">
    <path id="Prostokąt_zaokrąglony_1" data-name="Prostokąt zaokrąglony 1" class="cls-1" d="M1843.35,801.471l183.11-166.9a10,10,0,0,1,14.13.654l85.08,93.343a9.993,9.993,0,0,1-.66,14.127l-183.1,166.9a10,10,0,0,1-14.13-.654L1842.7,815.6A10,10,0,0,1,1843.35,801.471Z" transform="translate(-435 -14)"/>
    <path id="Elipsa_1" data-name="Elipsa 1" class="cls-2" d="M1910.81,776.61a27.064,27.064,0,1,1-1.81,38.269A27.088,27.088,0,0,1,1910.81,776.61Z" transform="translate(-435 -14)"/>
    <path id="Kształt_1" data-name="Kształt 1" class="cls-2" d="M2055.43,739.25c7.72,25.605,3.02,54.181-15.15,75.142-21.63,24.957-58.91,34.635-93.3,22.254q27.69-25.362,55.37-50.725,26.52-23.957,53.03-47.912" transform="translate(-435 -14)"/>
    <circle id="Elipsa_1-2" data-name="Elipsa 1" class="cls-3" cx="1584.2" cy="700.406" r="27.11"/>
    <path id="Elipsa_1-3" data-name="Elipsa 1" class="cls-4" d="M1915.98,781.788c8.44-7.692,21.35-7.271,28.84.94s6.71,21.1-1.73,28.8-21.35,7.271-28.83-.94S1907.55,789.48,1915.98,781.788Z" transform="translate(-435 -14)"/>
    <path id="Elipsa_1-4" data-name="Elipsa 1" class="cls-4" d="M2006.16,699.593c8.44-7.692,21.35-7.272,28.83.939s6.71,21.1-1.73,28.795-21.34,7.271-28.83-.94S1997.72,707.285,2006.16,699.593Z" transform="translate(-435 -14)"/>
    <path id="Górne_czerwone_uszy" data-name="Górne czerwone uszy" class="cls-4" d="M1833.19,721.65l30.56-27.855,5.92,6.488-30.56,27.855Z" transform="translate(-435 -14)"/>
    <path id="Górne_czerwone_uszy_kopia" data-name="Górne czerwone uszy kopia" class="cls-4" d="M1923.37,639.455l30.56-27.855,5.91,6.487-30.56,27.855Z" transform="translate(-435 -14)"/>
    <path id="Prostokąt_1" data-name="Prostokąt 1" class="cls-2" d="M1849.13,719.005l10.52-9.589,38.43,42.168-10.52,9.59Z" transform="translate(-435 -14)"/>
    <path id="Prostokąt_1_kopia" data-name="Prostokąt 1 kopia" class="cls-2" d="M1939.3,636.81l10.52-9.59,38.44,42.169-10.52,9.589Z" transform="translate(-435 -14)"/>
    <path id="Prostokąt_2" data-name="Prostokąt 2" class="cls-4" d="M1842,860.113l22.54-20.549,40.41,44.331-22.54,20.549Z" transform="translate(-435 -14)"/>
    <path id="Prostokąt_2-2" data-name="Prostokąt 2" class="cls-1" d="M2052.58,829.508l22.54-20.549,40.41,44.331-22.54,20.549Z" transform="translate(-435 -14)"/>
    <path id="Reka" class="cls-1" d="M2173.18,735.413l42.58-38.814L2343.39,836.62l-42.58,38.814Z" transform="translate(-435 -14)"/>
    <path id="Reka_kopia" data-name="Reka kopia" class="cls-1" d="M1946.5,966.789l-20.86,53.711-176.61-68.569,20.85-53.713Z" transform="translate(-435 -14)"/>
    <g transform="translate(-435 -14)" style="fill: #448ccb; filter: url(#filter)">
      <path id="Trójkat" class="cls-5" d="M1822.92,949.642l-73.93,1.348,21.09-53.63Z" style="stroke: inherit; filter: none; fill: inherit"/>
    </g>
    <use transform="translate(-435 -14)" xlink:href="#Trójkat" style="stroke: #000; filter: none; fill: none"/>
    <path id="Noga" class="cls-1" d="M2118.76,1125.51l95.69-87.22,128.12,140.56-95.68,87.22Z" transform="translate(-435 -14)"/>
    <path id="Noga_kopia" data-name="Noga kopia" class="cls-1" d="M2229.98,1024.13l95.69-87.217,128.12,140.567-95.69,87.21Z" transform="translate(-435 -14)"/>
    <path id="Prostokąt_2_kopia" data-name="Prostokąt 2 kopia" class="cls-4" d="M2062.43,659.19l22.54-20.548,40.41,44.331-22.54,20.549Z" transform="translate(-435 -14)"/>
    <path id="Prostokąt_3" data-name="Prostokąt 3" class="cls-1" d="M1911.98,936.881L2154.95,715.41,2342.7,921.387,2099.73,1142.86Z" transform="translate(-435 -14)"/>
    <g transform="translate(-435 -14)" style="fill: #448ccb; filter: url(#filter-2)">
      <path id="Trójkat_kopia" data-name="Trójkat kopia" class="cls-6" d="M2322.53,855.639l-67.42-30.345,41.96-39.493Z" style="stroke: inherit; filter: none; fill: inherit"/>
    </g>
    <use transform="translate(-435 -14)" xlink:href="#Trójkat_kopia" style="stroke: #000; filter: none; fill: none"/>
    <path id="Prostokąt_4" data-name="Prostokąt 4" class="cls-4" d="M2351.59,1170.63l109.21-99.55,27.6,30.28-109.21,99.55Z" transform="translate(-435 -14)"/>
    <path id="Kształt_2" data-name="Kształt 2" class="cls-7" d="M1435.55,896.127c-43.02-49.693-5.3-152.836,84.26-230.373s197.04-100.122,240.07-50.429c36.81,42.518,14.46,124.166-48.87,195.437,19.59,10.867,45.53,21.221,68.87,17.4-29.31,25.441-77.45,28.3-114.26,25.864C1578.2,924.782,1476.98,943.981,1435.55,896.127Z" transform="translate(-435 -14)"/>
    <text id="Hej_" data-name="Hej!" class="cls-8" transform="translate(1120.839 797.342) rotate(-36.649)">Hej!</text>
  </g>
</svg>
